<?xml version="1.0" standalone="no"?>
<!DOCTYPE svg PUBLIC "-//W3C//DTD SVG 20010904//EN"
 "http://www.w3.org/TR/2001/REC-SVG-20010904/DTD/svg10.dtd">
<svg version="1.0" xmlns="http://www.w3.org/2000/svg"
 width="300.000000pt" height="153.000000pt" viewBox="0 0 300.000000 153.000000"
 preserveAspectRatio="xMidYMid meet">
<metadata>
Created by potrace 1.10, written by Peter Selinger 2001-2011
</metadata>
<g transform="translate(0.000000,153.000000) scale(0.100000,-0.100000)"
fill="#000000" stroke="none">
<path d="M1535 1459 c-259 -33 -473 -221 -544 -477 -19 -68 -20 -104 -21 -464
0 -215 -3 -403 -6 -417 -4 -18 216 195 690 669 383 382 696 696 696 697 0 7
-755 -1 -815 -8z m695 -46 c0 -10 -1203 -1213 -1212 -1213 -5 0 -8 156 -8 348
0 382 5 420 61 536 58 118 151 211 271 272 117 59 145 62 536 63 193 1 352 -2
352 -6z"/>
<path d="M658 1245 c-179 -183 -212 -221 -240 -281 -32 -66 -33 -74 -33 -189
0 -120 0 -121 39 -200 35 -72 59 -100 242 -285 l204 -205 0 688 c0 378 -1 686
-2 686 -2 -1 -96 -97 -210 -214z m172 -476 c0 -313 -4 -569 -8 -569 -5 0 -81
74 -170 164 -136 138 -167 174 -194 232 -31 65 -33 76 -33 179 0 106 2 114 34
180 29 58 63 99 194 232 88 89 164 160 168 157 5 -3 9 -261 9 -575z"/>
<path d="M109 498 c4 -266 12 -301 95 -384 86 -86 125 -95 382 -92 l214 3
-347 347 -348 348 4 -222z m404 -246 c95 -95 173 -177 175 -182 2 -6 -57 -10
-158 -10 -152 0 -164 1 -215 25 -60 29 -118 88 -146 149 -16 35 -19 66 -19
211 l0 170 96 -95 c52 -52 172 -173 267 -268z"/>
<path d="M1865 701 c-169 -42 -223 -83 -557 -418 l-268 -268 975 0 975 0 -263
263 c-144 145 -288 283 -320 307 -156 118 -358 162 -542 116z m340 -56 c43
-14 107 -45 144 -69 80 -53 527 -498 517 -515 -9 -13 -1702 -16 -1710 -2 -9
14 453 474 519 517 159 102 355 128 530 69z"/>
</g>
</svg>
