999
DXF from OpenSCAD
  0
SECTION
  2
HEADER
  9
$ACADVER
  1
AC1006
  9
$INSBASE
 10
0.0
 20
0.0
 30
0.0
  9
$EXTMIN
 10
-10.3448
 20
-9.6885
  9
$EXTMAX
 10
10.3354
 20
11.005
  9
$LINMIN
 10
-10.3448
 20
-9.6885
  9
$LINMAX
 10
10.3354
 20
11.005
  0
ENDSEC
  0
SECTION
  2
TABLES
  0
TABLE
  2
LTYPE
 70
1
  0
LTYPE
  2
CONTINUOUS
 70
64
  3
Solid line
 72
65
 73
0
 40
0.000000
  0
ENDTAB
  0
TABLE
  2
LAYER
 70
6
  0
LAYER
  2
0
 70
64
 62
7
  6
CONTINUOUS
  0
ENDTAB
  0
TABLE
  2
STYLE
 70
0
  0
ENDTAB
  0
ENDSEC
  0
SECTION
  2
BLOCKS
  0
ENDSEC
  0
SECTION
  2
ENTITIES
  0
LWPOLYLINE
100
AcDbEntity
  8
0
100
AcDbPolyline
 90
158
 70
1
 10
0.479019
 20
-9.67699
 10
0.640268
 20
-9.6654
 10
0.640736
 20
-9.66537
 10
0.983337
 20
-9.64076
 10
1.4838
 20
-9.58011
 10
1.50219
 20
-9.57697
 10
1.98057
 20
-9.49515
 10
2.01229
 20
-9.48811
 10
2.35292
 20
-9.41255
 10
2.47374
 20
-9.38575
 10
2.84103
 20
-9.28755
 10
3.18702
 20
-9.17857
 10
3.34145
 20
-9.12993
 10
3.365
 20
-9.12117
 10
3.83178
 20
-8.94758
 10
3.99851
 20
-8.87573
 10
4.31214
 20
-8.74056
 10
4.40079
 20
-8.69688
 10
4.7834
 20
-8.50907
 10
4.82427
 20
-8.48547
 10
5.2427
 20
-8.25196
 10
5.37597
 20
-8.17167
 10
5.5337
 20
-8.07588
 10
5.6853
 20
-7.97052
 10
5.83685
 20
-7.87197
 10
6.24512
 20
-7.58143
 10
6.56376
 20
-7.31783
 10
6.70579
 20
-7.20219
 10
6.91268
 20
-7.02918
 10
7.53168
 20
-6.42301
 10
8.09779
 20
-5.76717
 10
8.60703
 20
-5.06626
 10
9.05583
 20
-4.32519
 10
9.44106
 20
-3.54917
 10
9.75999
 20
-2.74363
 10
10.0104
 20
-1.91423
 10
10.1905
 20
-1.06679
 10
10.2991
 20
-0.207245
 10
10.3354
 20
0.658371
 10
10.2991
 20
1.52399
 10
10.1905
 20
2.38353
 10
10.0104
 20
3.23097
 10
9.75999
 20
4.06037
 10
9.44106
 20
4.86591
 10
9.05583
 20
5.64193
 10
8.60703
 20
6.383
 10
8.09779
 20
7.08391
 10
7.53168
 20
7.73975
 10
6.91268
 20
8.34592
 10
6.74918
 20
8.48142
 10
6.52149
 20
8.66954
 10
6.24512
 20
8.89817
 10
5.94072
 20
9.1162
 10
5.5337
 20
9.39262
 10
5.08154
 20
9.66218
 10
4.7834
 20
9.82581
 10
4.63335
 20
9.90227
 10
4.39844
 20
10.0135
 10
4.17282
 20
10.1203
 10
3.99857
 20
10.1925
 10
3.6999
 20
10.3162
 10
3.40476
 20
10.4247
 10
3.36496
 20
10.4376
 10
3.18695
 20
10.4952
 10
2.92906
 20
10.5786
 10
2.44806
 20
10.7088
 10
2.35301
 20
10.7297
 10
2.01225
 20
10.8045
 10
1.962
 20
10.8155
 10
1.50214
 20
10.8934
 10
1.4711
 20
10.8987
 10
0.975549
 20
10.9582
 10
0.640794
 20
10.9837
 10
0.64038
 20
10.9838
 10
0.575649
 20
10.9887
 10
0.0690796
 20
11.005
 10
-0.225863
 20
11
 10
-0.434595
 20
10.9965
 10
-0.73664
 20
10.9767
 10
-0.935556
 20
10.9637
 10
-1.09047
 20
10.9459
 10
-1.43396
 20
10.9066
 10
-1.92993
 20
10.8252
 10
-1.94793
 20
10.8214
 10
-2.10735
 20
10.788
 10
-2.32587
 20
10.7422
 10
-2.79132
 20
10.6227
 10
-2.82996
 20
10.6127
 10
-3.32522
 20
10.4585
 10
-3.45842
 20
10.4095
 10
-3.61435
 20
10.3522
 10
-3.81178
 20
10.2797
 10
-4.28969
 20
10.0761
 10
-4.41263
 20
10.0162
 10
-4.41801
 20
10.0136
 10
-4.75883
 20
9.84751
 10
-4.77806
 20
9.83733
 10
-4.90941
 20
9.76777
 10
-5.18154
 20
9.61708
 10
-5.2786
 20
9.55548
 10
-5.38162
 20
9.49624
 10
-5.91304
 20
9.15285
 10
-6.11366
 20
9.00057
 10
-6.27838
 20
8.88104
 10
-6.60313
 20
8.62904
 10
-7.24698
 20
8.04932
 10
-7.84005
 20
7.41776
 10
-8.3782
 20
6.73879
 10
-8.85764
 20
6.01716
 10
-9.27502
 20
5.25795
 10
-9.62741
 20
4.46648
 10
-9.91233
 20
3.6483
 10
-10.1278
 20
2.80914
 10
-10.2723
 20
1.9549
 10
-10.3448
 20
1.09156
 10
-10.3448
 20
0.225183
 10
-10.2723
 20
-0.638154
 10
-10.1278
 20
-1.4924
 10
-9.91233
 20
-2.33155
 10
-9.62741
 20
-3.14974
 10
-9.27502
 20
-3.94121
 10
-8.85764
 20
-4.70042
 10
-8.3782
 20
-5.42205
 10
-7.84005
 20
-6.10102
 10
-7.24698
 20
-6.73258
 10
-7.03803
 20
-6.9211
 10
-7.01254
 20
-6.94366
 10
-6.60313
 20
-7.3123
 10
-6.20963
 20
-7.61656
 10
-6.15129
 20
-7.6602
 10
-6.06064
 20
-7.72408
 10
-5.91304
 20
-7.83611
 10
-5.73214
 20
-7.95552
 10
-5.30089
 20
-8.22831
 10
-5.18154
 20
-8.30034
 10
-4.85772
 20
-8.47876
 10
-4.77771
 20
-8.51888
 10
-4.42241
 20
-8.69707
 10
-4.41363
 20
-8.70148
 10
-4.40276
 20
-8.70692
 10
-3.93607
 20
-8.9127
 10
-3.61443
 20
-9.03582
 10
-3.45885
 20
-9.09537
 10
-3.45763
 20
-9.09584
 10
-3.32465
 20
-9.14195
 10
-2.84683
 20
-9.29118
 10
-2.79124
 20
-9.30562
 10
-2.36454
 20
-9.4165
 10
-2.10724
 20
-9.47026
 10
-1.9477
 20
-9.50359
 10
-1.87806
 20
-9.51814
 10
-1.38764
 20
-9.59619
 10
-1.09045
 20
-9.62893
 10
-0.893489
 20
-9.65063
 10
-0.736656
 20
-9.66029
 10
-0.395818
 20
-9.68129
 10
-0.225881
 20
-9.68464
 10
-0.029352
 20
-9.6885
  0
LWPOLYLINE
100
AcDbEntity
  8
0
100
AcDbPolyline
 90
36
 70
1
 10
-0.492488
 20
-2.08235
 10
-0.961067
 20
-1.95679
 10
-1.40072
 20
-1.75178
 10
-1.7981
 20
-1.47353
 10
-2.14113
 20
-1.13051
 10
-2.41937
 20
-0.73313
 10
-2.62439
 20
-0.293472
 10
-2.74994
 20
0.175108
 10
-2.79222
 20
0.658371
 10
-2.74994
 20
1.14163
 10
-2.62439
 20
1.61021
 10
-2.41937
 20
2.04987
 10
-2.14113
 20
2.44725
 10
-1.7981
 20
2.79027
 10
-1.40072
 20
3.06852
 10
-0.961067
 20
3.27354
 10
-0.492488
 20
3.39909
 10
-0.00922472
 20
3.44137
 10
0.474039
 20
3.39909
 10
0.942618
 20
3.27354
 10
1.38228
 20
3.06852
 10
1.77965
 20
2.79027
 10
2.12268
 20
2.44725
 10
2.40092
 20
2.04987
 10
2.60594
 20
1.61021
 10
2.7315
 20
1.14163
 10
2.77378
 20
0.658371
 10
2.7315
 20
0.175108
 10
2.60594
 20
-0.293472
 10
2.40092
 20
-0.73313
 10
2.12268
 20
-1.13051
 10
1.77965
 20
-1.47353
 10
1.38228
 20
-1.75178
 10
0.942618
 20
-1.95679
 10
0.474039
 20
-2.08235
 10
-0.00922472
 20
-2.12463
  0
ENDSEC
  0
EOF
