999
DXF from OpenSCAD
  0
SECTION
  2
HEADER
  9
$ACADVER
  1
AC1006
  9
$INSBASE
 10
0.0
 20
0.0
 30
0.0
  9
$EXTMIN
 10
-10.3507
 20
-10.3383
  9
$EXTMAX
 10
10.325
 20
10.3484
  9
$LINMIN
 10
-10.3507
 20
-10.3383
  9
$LINMAX
 10
10.325
 20
10.3484
  0
ENDSEC
  0
SECTION
  2
TABLES
  0
TABLE
  2
LTYPE
 70
1
  0
LTYPE
  2
CONTINUOUS
 70
64
  3
Solid line
 72
65
 73
0
 40
0.000000
  0
ENDTAB
  0
TABLE
  2
LAYER
 70
6
  0
LAYER
  2
0
 70
64
 62
7
  6
CONTINUOUS
  0
ENDTAB
  0
TABLE
  2
STYLE
 70
0
  0
ENDTAB
  0
ENDSEC
  0
SECTION
  2
BLOCKS
  0
ENDSEC
  0
SECTION
  2
ENTITIES
  0
LWPOLYLINE
100
AcDbEntity
  8
0
100
AcDbPolyline
 90
204
 70
1
 10
-10.3507
 20
-0.427948
 10
-10.3228
 20
-0.760879
 10
-10.2783
 20
-1.2911
 10
-10.2225
 20
-1.62053
 10
-10.1338
 20
-2.14516
 10
-10.0507
 20
-2.46877
 10
-9.91839
 20
-2.98414
 10
-9.80852
 20
-3.29966
 10
-9.63353
 20
-3.80215
 10
-9.49764
 20
-4.10737
 10
-9.28122
 20
-4.59346
 10
-9.12026
 20
-4.88623
 10
-8.86393
 20
-5.3525
 10
-8.67904
 20
-5.63079
 10
-8.38459
 20
-6.07397
 10
-8.17706
 20
-6.33581
 10
-7.84655
 20
-6.7528
 10
-7.61785
 20
-6.99635
 10
-7.25361
 20
-7.38423
 10
-7.00532
 20
-7.60779
 10
-6.6099
 20
-7.96382
 10
-6.34378
 20
-8.16582
 10
-5.91995
 20
-8.48752
 10
-5.63786
 20
-8.66654
 10
-5.1886
 20
-8.95165
 10
-4.89586
 20
-9.10464
 10
-4.42432
 20
-9.35116
 10
-4.42093
 20
-9.35286
 10
-4.41673
 20
-9.35497
 10
-4.22276
 20
-9.44061
 10
-3.75574
 20
-9.63693
 10
-3.62225
 20
-9.68807
 10
-3.55317
 20
-9.71453
 10
-3.55261
 20
-9.71474
 10
-3.49122
 20
-9.7361
 10
-3.04003
 20
-9.8827
 10
-2.82555
 20
-9.94988
 10
-2.79884
 20
-9.95683
 10
-2.58236
 20
-10.0132
 10
-2.44325
 20
-10.0426
 10
-2.03845
 20
-10.1375
 10
-1.95551
 20
-10.1549
 10
-1.91849
 20
-10.1626
 10
-1.64639
 20
-10.2061
 10
-1.26253
 20
-10.2628
 10
-1.09849
 20
-10.2809
 10
-0.986786
 20
-10.2932
 10
-0.896852
 20
-10.2988
 10
-0.525127
 20
-10.3222
 10
-0.331915
 20
-10.3341
 10
-0.234014
 20
-10.3361
 10
-0.120371
 20
-10.3383
 10
0.244815
 20
-10.3307
 10
0.539332
 20
-10.3239
 10
0.632022
 20
-10.3173
 10
1.00116
 20
-10.2785
 10
1.00144
 20
-10.2785
 10
1.20088
 20
-10.2639
 10
1.4836
 20
-10.2295
 10
1.49367
 20
-10.2278
 10
1.87922
 20
-10.1543
 10
2.14856
 20
-10.1077
 10
2.16582
 20
-10.1039
 10
2.34437
 20
-10.0642
 10
2.40484
 20
-10.0508
 10
2.82151
 20
-9.93447
 10
3.01249
 20
-9.88302
 10
3.17847
 20
-9.83069
 10
3.61774
 20
-9.66733
 10
3.69436
 20
-9.64277
 10
3.70593
 20
-9.63845
 10
3.92002
 20
-9.55852
 10
3.99009
 20
-9.52831
 10
4.45267
 20
-9.31064
 10
4.58986
 20
-9.25092
 10
4.62666
 20
-9.23277
 10
4.7742
 20
-9.16034
 10
5.06355
 20
-8.99329
 10
5.52435
 20
-8.72724
 10
5.7987
 20
-8.53657
 10
6.23562
 20
-8.2329
 10
6.49305
 20
-8.01993
 10
6.90303
 20
-7.68077
 10
7.14174
 20
-7.44701
 10
7.5219
 20
-7.07472
 10
7.74021
 20
-6.82181
 10
8.08789
 20
-6.41902
 10
8.28427
 20
-6.14873
 10
8.59702
 20
-5.71826
 10
8.7701
 20
-5.43248
 10
9.04573
 20
-4.97735
 10
9.19429
 20
-4.67809
 10
9.43087
 20
-4.20149
 10
9.55386
 20
-3.89085
 10
9.74974
 20
-3.39613
 10
9.8463
 20
-3.07629
 10
10.0001
 20
-2.56691
 10
10.0696
 20
-2.24011
 10
10.1802
 20
-1.71964
 10
10.2221
 20
-1.38818
 10
10.2887
 20
-0.860284
 10
10.3027
 20
-0.526475
 10
10.325
 20
0.00514603
 10
10.311
 20
0.338956
 10
10.2887
 20
0.870577
 10
10.2469
 20
1.20205
 10
10.1802
 20
1.72994
 10
10.1107
 20
2.05674
 10
10.0001
 20
2.5772
 10
9.90353
 20
2.89704
 10
9.74974
 20
3.40642
 10
9.62675
 20
3.71706
 10
9.43087
 20
4.21179
 10
9.28232
 20
4.51105
 10
9.04573
 20
4.98764
 10
8.87266
 20
5.27342
 10
8.59702
 20
5.72855
 10
8.40064
 20
5.99885
 10
8.08789
 20
6.42932
 10
7.86958
 20
6.68223
 10
7.5219
 20
7.08502
 10
7.28319
 20
7.31878
 10
6.90303
 20
7.69106
 10
6.6456
 20
7.90402
 10
6.23562
 20
8.24319
 10
5.96127
 20
8.43387
 10
5.52435
 20
8.73754
 10
5.23501
 20
8.90459
 10
4.7742
 20
9.17063
 10
4.62575
 20
9.24301
 10
4.53025
 20
9.28837
 10
4.05974
 20
9.50978
 10
3.99011
 20
9.53862
 10
3.86219
 20
9.59161
 10
3.72513
 20
9.64229
 10
3.70595
 20
9.64859
 10
3.25828
 20
9.81507
 10
3.17844
 20
9.84092
 10
3.05604
 20
9.88055
 10
2.61782
 20
10.0029
 10
2.39212
 20
10.0642
 10
2.34442
 20
10.0747
 10
2.16583
 20
10.114
 10
2.13844
 20
10.12
 10
1.73589
 20
10.1968
 10
1.49365
 20
10.238
 10
1.47663
 20
10.2409
 10
1.19637
 20
10.2746
 10
1.00106
 20
10.2897
 10
0.632323
 20
10.3285
 10
0.632086
 20
10.3285
 10
0.594973
 20
10.3313
 10
0.225543
 20
10.3391
 10
-0.0634781
 20
10.3484
 10
-0.234004
 20
10.3456
 10
-0.35416
 20
10.3435
 10
-0.52507
 20
10.3323
 10
-0.896876
 20
10.3089
 10
-1.01081
 20
10.3014
 10
-1.0985
 20
10.2913
 10
-1.47456
 20
10.2358
 10
-1.67284
 20
10.2127
 10
-1.94611
 20
10.1678
 10
-1.95563
 20
10.1658
 10
-2.03855
 20
10.1483
 10
-2.44314
 20
10.0534
 10
-2.5618
 20
10.0283
 10
-2.79888
 20
9.96726
 10
-2.81748
 20
9.96248
 10
-3.24456
 20
9.82371
 10
-3.49149
 20
9.7463
 10
-3.55304
 20
9.72366
 10
-3.62222
 20
9.69821
 10
-4.074
 20
9.5083
 10
-4.16663
 20
9.47375
 10
-4.37216
 20
9.38595
 10
-4.42055
 20
9.36236
 10
-4.42262
 20
9.36135
 10
-4.89416
 20
9.11484
 10
-5.1886
 20
8.96194
 10
-5.4707
 20
8.78292
 10
-5.91995
 20
8.49781
 10
-6.18608
 20
8.29581
 10
-6.6099
 20
7.97411
 10
-6.85819
 20
7.75056
 10
-7.25361
 20
7.39452
 10
-7.48231
 20
7.15097
 10
-7.84655
 20
6.76309
 10
-8.05408
 20
6.50126
 10
-8.38459
 20
6.08427
 10
-8.56948
 20
5.80598
 10
-8.86393
 20
5.3628
 10
-9.02488
 20
5.07002
 10
-9.28122
 20
4.60375
 10
-9.41711
 20
4.29853
 10
-9.63353
 20
3.81244
 10
-9.74341
 20
3.49692
 10
-9.91839
 20
2.99443
 10
-10.0015
 20
2.67083
 10
-10.1338
 20
2.15546
 10
-10.1895
 20
1.82603
 10
-10.2783
 20
1.30139
 10
-10.3062
 20
0.968464
 10
-10.3507
 20
0.438241
  0
LWPOLYLINE
100
AcDbEntity
  8
0
100
AcDbPolyline
 90
4
 70
1
 10
-6.7274
 20
-6.70485
 10
-6.7274
 20
6.71515
 10
6.6926
 20
6.71515
 10
6.6926
 20
-6.70485
  0
ENDSEC
  0
EOF
