999
DXF from OpenSCAD
  0
SECTION
  2
HEADER
  9
$ACADVER
  1
AC1006
  9
$INSBASE
 10
0.0
 20
0.0
 30
0.0
  9
$EXTMIN
 10
-10.1617
 20
-10.1458
  9
$EXTMAX
 10
10.1358
 20
10.1561
  9
$LINMIN
 10
-10.1617
 20
-10.1458
  9
$LINMAX
 10
10.1358
 20
10.1561
  0
ENDSEC
  0
SECTION
  2
TABLES
  0
TABLE
  2
LTYPE
 70
1
  0
LTYPE
  2
CONTINUOUS
 70
64
  3
Solid line
 72
65
 73
0
 40
0.000000
  0
ENDTAB
  0
TABLE
  2
LAYER
 70
6
  0
LAYER
  2
0
 70
64
 62
7
  6
CONTINUOUS
  0
ENDTAB
  0
TABLE
  2
STYLE
 70
0
  0
ENDTAB
  0
ENDSEC
  0
SECTION
  2
BLOCKS
  0
ENDSEC
  0
SECTION
  2
ENTITIES
  0
LWPOLYLINE
100
AcDbEntity
  8
0
100
AcDbPolyline
 90
149
 70
1
 10
-10.1617
 20
-0.420024
 10
-10.1494
 20
-0.566108
 10
-10.0905
 20
-1.26739
 10
-10.0661
 20
-1.41193
 10
-9.94872
 20
-2.10582
 10
-9.91226
 20
-2.24781
 10
-9.73725
 20
-2.92945
 10
-9.68904
 20
-3.06789
 10
-9.4576
 20
-3.73249
 10
-9.39797
 20
-3.86642
 10
-9.11173
 20
-4.50932
 10
-9.04111
 20
-4.63779
 10
-8.70208
 20
-5.25448
 10
-8.62095
 20
-5.37659
 10
-8.2315
 20
-5.96275
 10
-8.14045
 20
-6.07764
 10
-7.70332
 20
-6.62916
 10
-7.60296
 20
-6.73603
 10
-7.12122
 20
-7.24904
 10
-7.01227
 20
-7.34713
 10
-6.48929
 20
-7.81803
 10
-6.37252
 20
-7.90666
 10
-5.81196
 20
-8.33214
 10
-5.68819
 20
-8.41069
 10
-5.09399
 20
-8.78778
 10
-4.96408
 20
-8.8557
 10
-4.34042
 20
-9.18174
 10
-4.20527
 20
-9.23855
 10
-3.55652
 20
-9.51126
 10
-3.41709
 20
-9.55656
 10
-2.74779
 20
-9.77403
 10
-2.60507
 20
-9.80751
 10
-1.91992
 20
-9.96821
 10
-1.77489
 20
-9.98963
 10
-1.07869
 20
-10.0924
 10
-0.932385
 20
-10.1016
 10
-0.230029
 20
-10.1458
 10
-0.0834636
 20
-10.1428
 10
0.620128
 20
-10.128
 10
0.765923
 20
-10.1127
 10
1.46581
 20
-10.0391
 10
1.60981
 20
-10.0117
 10
2.3011
 20
-9.87979
 10
2.44229
 20
-9.84037
 10
3.12011
 20
-9.65112
 10
3.25752
 20
-9.60002
 10
3.91713
 20
-9.35471
 10
4.04977
 20
-9.29229
 10
4.68654
 20
-8.99265
 10
4.8135
 20
-8.91935
 10
5.42296
 20
-8.56748
 10
5.54334
 20
-8.48382
 10
6.12122
 20
-8.08218
 10
6.23417
 20
-7.98873
 10
6.77642
 20
-7.54015
 10
6.88116
 20
-7.43758
 10
7.38397
 20
-6.94519
 10
7.47976
 20
-6.83422
 10
7.9396
 20
-6.30149
 10
8.02577
 20
-6.18289
 10
8.43942
 20
-5.61355
 10
8.51536
 20
-5.48815
 10
8.87992
 20
-4.88619
 10
8.9451
 20
-4.75488
 10
9.25801
 20
-4.12453
 10
9.31198
 20
-3.98823
 10
9.57104
 20
-3.3339
 10
9.61341
 20
-3.19356
 10
9.81682
 20
-2.51985
 10
9.8473
 20
-2.37646
 10
9.99362
 20
-1.68809
 10
10.012
 20
-1.54265
 10
10.1002
 20
-0.844451
 10
10.1063
 20
-0.697982
 10
10.1358
 20
0.00514603
 10
10.1297
 20
0.151615
 10
10.1002
 20
0.854744
 10
10.0818
 20
1.00019
 10
9.99362
 20
1.69838
 10
9.96314
 20
1.84178
 10
9.81682
 20
2.53014
 10
9.77445
 20
2.67048
 10
9.57104
 20
3.34419
 10
9.51708
 20
3.4805
 10
9.25801
 20
4.13482
 10
9.19283
 20
4.26613
 10
8.87992
 20
4.89649
 10
8.80398
 20
5.02188
 10
8.43942
 20
5.62384
 10
8.35325
 20
5.74244
 10
7.9396
 20
6.31178
 10
7.84381
 20
6.42276
 10
7.38397
 20
6.95549
 10
7.27923
 20
7.05806
 10
6.77642
 20
7.55044
 10
6.66346
 20
7.64389
 10
6.12122
 20
8.09247
 10
6.00084
 20
8.17614
 10
5.42296
 20
8.57777
 10
5.296
 20
8.65107
 10
4.68654
 20
9.00295
 10
4.55389
 20
9.06536
 10
3.91713
 20
9.365
 10
3.77972
 20
9.4161
 10
3.12011
 20
9.66141
 10
2.97892
 20
9.70083
 10
2.3011
 20
9.89009
 10
2.15709
 20
9.91756
 10
1.46581
 20
10.0494
 10
1.32002
 20
10.0647
 10
0.620128
 20
10.1383
 10
0.473563
 20
10.1414
 10
-0.230029
 20
10.1561
 10
-0.376337
 20
10.1469
 10
-1.07869
 20
10.1027
 10
-1.22372
 20
10.0813
 10
-1.91992
 20
9.9785
 10
-2.06264
 20
9.94503
 10
-2.74779
 20
9.78433
 10
-2.88721
 20
9.73902
 10
-3.55652
 20
9.52156
 10
-3.69166
 20
9.46475
 10
-4.34042
 20
9.19203
 10
-4.47033
 20
9.12412
 10
-5.09399
 20
8.79807
 10
-5.21777
 20
8.71952
 10
-5.81196
 20
8.34244
 10
-5.92873
 20
8.2538
 10
-6.48929
 20
7.82832
 10
-6.59823
 20
7.73023
 10
-7.12122
 20
7.25933
 10
-7.22157
 20
7.15246
 10
-7.70332
 20
6.63945
 10
-7.79437
 20
6.52457
 10
-8.2315
 20
5.97305
 10
-8.31263
 20
5.85094
 10
-8.70208
 20
5.26478
 10
-8.7727
 20
5.13631
 10
-9.11173
 20
4.51961
 10
-9.17136
 20
4.38569
 10
-9.4576
 20
3.74279
 10
-9.50581
 20
3.60434
 10
-9.73725
 20
2.93974
 10
-9.77371
 20
2.79775
 10
-9.94872
 20
2.11611
 10
-9.97317
 20
1.97157
 10
-10.0905
 20
1.27768
 10
-10.1028
 20
1.1316
 10
-10.1617
 20
0.430317
  0
LWPOLYLINE
100
AcDbEntity
  8
0
100
AcDbPolyline
 90
39
 70
1
 10
-5.50419
 20
-0.215963
 10
-5.46861
 20
0.667044
 10
-5.29184
 20
1.53291
 10
-4.97847
 20
2.3592
 10
-4.53661
 20
3.12453
 10
-3.9777
 20
3.80907
 10
-3.31622
 20
4.39509
 10
-2.56931
 20
4.86741
 10
-1.7563
 20
5.2138
 10
-0.898254
 20
5.42529
 10
-0.017396
 20
5.4964
 10
0.863462
 20
5.42529
 10
1.72151
 20
5.2138
 10
2.53451
 20
4.86741
 10
3.28143
 20
4.39509
 10
3.94291
 20
3.80907
 10
4.50181
 20
3.12453
 10
4.94367
 20
2.3592
 10
5.25705
 20
1.53291
 10
5.43382
 20
0.667044
 10
5.4694
 20
-0.215963
 10
5.36288
 20
-1.09324
 10
5.11701
 20
-1.94208
 10
4.73817
 20
-2.74048
 10
4.23615
 20
-3.46777
 10
3.62398
 20
-4.10511
 10
2.91749
 20
-4.636
 10
2.13499
 20
-5.04669
 10
1.29675
 20
-5.32654
 10
0.424465
 20
-5.4683
 10
-0.459258
 20
-5.4683
 10
-1.33154
 20
-5.32654
 10
-2.16978
 20
-5.04669
 10
-2.95228
 20
-4.636
 10
-3.65877
 20
-4.10511
 10
-4.27094
 20
-3.46777
 10
-4.77296
 20
-2.74048
 10
-5.1518
 20
-1.94208
 10
-5.39767
 20
-1.09324
  0
ENDSEC
  0
EOF
