999
DXF from OpenSCAD
  0
SECTION
  2
HEADER
  9
$ACADVER
  1
AC1006
  9
$INSBASE
 10
0.0
 20
0.0
 30
0.0
  9
$EXTMIN
 10
-10.3529
 20
5.60352e-05
  9
$EXTMAX
 10
10.327
 20
22
  9
$LINMIN
 10
-10.3529
 20
5.60352e-05
  9
$LINMAX
 10
10.327
 20
22
  0
ENDSEC
  0
SECTION
  2
TABLES
  0
TABLE
  2
LTYPE
 70
1
  0
LTYPE
  2
CONTINUOUS
 70
64
  3
Solid line
 72
65
 73
0
 40
0.000000
  0
ENDTAB
  0
TABLE
  2
LAYER
 70
6
  0
LAYER
  2
0
 70
64
 62
7
  6
CONTINUOUS
  0
ENDTAB
  0
TABLE
  2
STYLE
 70
0
  0
ENDTAB
  0
ENDSEC
  0
SECTION
  2
BLOCKS
  0
ENDSEC
  0
SECTION
  2
ENTITIES
  0
LWPOLYLINE
100
AcDbEntity
  8
0
100
AcDbPolyline
 90
64
 70
1
 10
-10.3529
 20
3.71078
 10
-10.3343
 20
1.01869
 10
-10.3401
 20
0.0532872
 10
-10.3399
 20
0.000491318
 10
-10.2208
 20
0.115749
 10
-9.73671
 20
0.584802
 10
-9.72298
 20
0.598104
 10
-9.64923
 20
0.66973
 10
-9.62328
 20
0.694997
 10
-9.61797
 20
0.700165
 10
-9.59977
 20
0.717899
 10
-9.59124
 20
0.726192
 10
-9.58829
 20
0.729062
 10
-9.57836
 20
0.738639
 10
-9.57373
 20
0.743046
 10
-9.57039
 20
0.746218
 10
-9.56362
 20
0.752514
 10
-9.5614
 20
0.754516
 10
-9.55785
 20
0.757715
 10
-9.5039
 20
0.805556
 10
-9.50007
 20
0.809006
 10
-8.94999
 20
1.26901
 10
-8.91706
 20
1.29755
 10
-8.90866
 20
1.30457
 10
-8.90764
 20
1.30542
 10
-8.88087
 20
1.32779
 10
-8.85347
 20
1.34968
 10
-8.65206
 20
1.50135
 10
-8.62194
 20
1.52533
 10
-8.45144
 20
1.65421
 10
-8.4306
 20
1.66906
 10
-7.8928
 20
2.0413
 10
-7.88649
 20
2.04578
 10
-7.86325
 20
2.06229
 10
-7.83497
 20
2.08125
 10
-7.57129
 20
2.24473
 10
-7.54928
 20
2.25943
 10
-7.35664
 20
2.38035
 10
-7.27944
 20
2.42558
 10
-6.99085
 20
2.58748
 10
-6.7274
 20
2.73612
 10
-6.7274
 20
9.91997
 10
-5.49549
 20
9.91997
 10
-5.49549
 20
19.8475
 10
-2.79995
 20
19.8475
 10
-2.79995
 20
22
 10
-5.17587
 20
22
 10
-5.46886
 20
21.7014
 10
-6.07001
 20
21.0366
 10
-6.62689
 20
20.3454
 10
-7.14163
 20
19.6254
 10
-7.61603
 20
18.8733
 10
-8.05157
 20
18.0853
 10
-8.44939
 20
17.2567
 10
-8.81034
 20
16.3816
 10
-9.13493
 20
15.4526
 10
-9.42286
 20
14.4622
 10
-9.65031
 20
13.5099
 10
-9.8465
 20
12.4946
 10
-10.0113
 20
11.4042
 10
-10.1444
 20
10.2221
 10
-10.2455
 20
8.92338
 10
-10.3139
 20
7.46991
 10
-10.3494
 20
5.80923
  0
LWPOLYLINE
100
AcDbEntity
  8
0
100
AcDbPolyline
 90
85
 70
1
 10
2.76515
 20
19.8475
 10
5.4607
 20
19.8475
 10
5.4607
 20
9.91997
 10
6.6926
 20
9.91997
 10
6.6926
 20
2.73612
 10
6.92274
 20
2.60715
 10
7.17758
 20
2.4645
 10
7.34385
 20
2.36743
 10
7.35135
 20
2.36295
 10
7.3519
 20
2.3626
 10
7.35631
 20
2.35983
 10
7.36605
 20
2.35342
 10
7.36738
 20
2.35249
 10
7.37564
 20
2.34675
 10
8.33298
 20
1.71449
 10
8.45574
 20
1.6261
 10
8.4564
 20
1.62564
 10
8.46341
 20
1.62043
 10
8.46569
 20
1.61874
 10
8.47569
 20
1.61093
 10
8.48003
 20
1.60739
 10
8.48667
 20
1.60198
 10
8.48914
 20
1.5999
 10
8.49906
 20
1.59156
 10
8.49978
 20
1.59093
 10
9.41091
 20
0.856802
 10
9.41171
 20
0.856091
 10
9.49627
 20
0.78107
 10
9.49779
 20
0.779716
 10
9.73908
 20
0.559127
 10
9.77658
 20
0.524629
 10
9.77899
 20
0.522418
 10
9.82503
 20
0.478684
 10
9.85313
 20
0.451303
 10
9.87362
 20
0.431334
 10
9.92515
 20
0.380259
 10
9.94529
 20
0.360107
 10
9.98438
 20
0.320997
 10
10.0567
 20
0.248413
 10
10.0715
 20
0.233575
 10
10.1535
 20
0.151531
 10
10.3035
 20
0.00208321
 10
10.3055
 20
5.60352e-05
 10
10.3084
 20
1.00335
 10
10.3084
 20
1.01235
 10
10.3084
 20
1.01869
 10
10.3085
 20
1.0347
 10
10.327
 20
3.71078
 10
10.327
 20
3.72326
 10
10.3234
 20
5.80923
 10
10.3232
 20
5.81914
 10
10.288
 20
7.46991
 10
10.2875
 20
7.47864
 10
10.2194
 20
8.92338
 10
10.2188
 20
8.93126
 10
10.1183
 20
10.2221
 10
10.1175
 20
10.2293
 10
9.98505
 20
11.4042
 10
9.98402
 20
11.4111
 10
9.82012
 20
12.4946
 10
9.81887
 20
12.5011
 10
9.62376
 20
13.5099
 10
9.62227
 20
13.5161
 10
9.3961
 20
14.4622
 10
9.39416
 20
14.4689
 10
9.10792
 20
15.4526
 10
9.10565
 20
15.4591
 10
8.78306
 20
16.3816
 10
8.78042
 20
16.3879
 10
8.42179
 20
17.2567
 10
8.41874
 20
17.263
 10
8.02361
 20
18.0853
 10
8.02009
 20
18.0917
 10
7.5877
 20
18.8733
 10
7.5836
 20
18.8798
 10
7.11288
 20
19.6254
 10
7.10809
 20
19.6321
 10
6.59769
 20
20.3454
 10
6.59203
 20
20.3524
 10
6.04032
 20
21.0366
 10
6.03354
 20
21.044
 10
5.43864
 20
21.7014
 10
5.14869
 20
21.9966
 10
5.14539
 20
22
 10
2.76515
 20
22
  0
ENDSEC
  0
EOF
